<svg width="24" height="19" viewBox="0 0 24 19" fill="none" xmlns="http://www.w3.org/2000/svg">
<g clip-path="url(#clip0_2_33)">
<path d="M22.9638 4.26044C22.9712 4.22098 22.9411 4.17229 22.8887 4.1387C22.8887 4.1387 22.8887 4.1387 22.8512 4.12946C21.738 4.74208 18.6706 5.01684 15.6094 4.83912C5.20568 4.23183 3.69481 9.59596 2.92525 12.5634C2.46634 14.2869 2.92525 12.5634 5.57208 14.3311C5.78201 14.4655 11.8995 16.3893 17.391 13.411C22.7481 10.5233 22.8122 6.12159 22.9638 4.26044Z" fill="#04087C"/>
<path d="M20.3431 1.23974C20.3397 1.19979 20.2944 1.16001 20.2298 1.14028C20.2298 1.14028 20.2298 1.14028 20.1878 1.14044C19.19 2.00355 16.0425 3.01494 12.774 3.58721C1.66518 5.52892 1.76179 12.0498 1.78858 15.1068C1.79154 16.8852 2.12579 13.8285 5.40641 14.8947C5.66496 14.9736 11.4747 17.0597 16.4093 12.8443C21.228 8.74927 20.7079 3.0766 20.3431 1.23974Z" fill="#059BDC"/>
</g>
<defs>
<clipPath id="clip0_2_33">
<rect width="24" height="19" fill="white"/>
</clipPath>
</defs>
</svg>
