<svg width="64" height="18" viewBox="0 0 64 18" fill="none" xmlns="http://www.w3.org/2000/svg">
<g clip-path="url(#clip0_4_46)">
<g clip-path="url(#clip1_4_46)">
<path d="M22.9638 4.26044C22.9712 4.22098 22.9411 4.17229 22.8887 4.1387C22.8887 4.1387 22.8887 4.1387 22.8512 4.12946C21.738 4.74208 18.6706 5.01684 15.6094 4.83912C5.20568 4.23183 3.69481 9.59596 2.92525 12.5634C2.46634 14.2869 2.92525 12.5634 5.57208 14.3311C5.78201 14.4655 11.8995 16.3893 17.391 13.411C22.7481 10.5233 22.8122 6.12159 22.9638 4.26044Z" fill="#04087C"/>
<path d="M20.3431 1.23974C20.3397 1.19979 20.2944 1.16001 20.2298 1.14028C20.2298 1.14028 20.2298 1.14028 20.1878 1.14044C19.19 2.00355 16.0425 3.01494 12.774 3.58721C1.66518 5.52893 1.76179 12.0498 1.78858 15.1068C1.79154 16.8852 2.12579 13.8285 5.40641 14.8947C5.66496 14.9736 11.4747 17.0597 16.4093 12.8443C21.228 8.74927 20.7079 3.0766 20.3431 1.23974Z" fill="#059BDC"/>
</g>
<path d="M27.4148 12H26.3068L29.5114 3.27273H30.6023L33.8068 12H32.6989L30.0909 4.65341H30.0227L27.4148 12ZM27.8239 8.59091H32.2898V9.52841H27.8239V8.59091ZM39.6662 6.92045L38.7628 7.17614C38.706 7.02557 38.6222 6.87926 38.5114 6.73722C38.4034 6.59233 38.2557 6.47301 38.0682 6.37926C37.8807 6.28551 37.6406 6.23864 37.348 6.23864C36.9474 6.23864 36.6136 6.33097 36.3466 6.51562C36.0824 6.69744 35.9503 6.92898 35.9503 7.21023C35.9503 7.46023 36.0412 7.65767 36.223 7.80256C36.4048 7.94744 36.6889 8.06818 37.0753 8.16477L38.0469 8.40341C38.6321 8.54545 39.0682 8.76278 39.3551 9.0554C39.642 9.34517 39.7855 9.71875 39.7855 10.1761C39.7855 10.5511 39.6776 10.8864 39.4616 11.1818C39.2486 11.4773 38.9503 11.7102 38.5668 11.8807C38.1832 12.0511 37.7372 12.1364 37.2287 12.1364C36.5611 12.1364 36.0085 11.9915 35.571 11.7017C35.1335 11.4119 34.8565 10.9886 34.7401 10.4318L35.6946 10.1932C35.7855 10.5455 35.9574 10.8097 36.2102 10.9858C36.4659 11.1619 36.7997 11.25 37.2116 11.25C37.6804 11.25 38.0526 11.1506 38.3281 10.9517C38.6065 10.75 38.7457 10.5085 38.7457 10.2273C38.7457 10 38.6662 9.80966 38.5071 9.65625C38.348 9.5 38.1037 9.38352 37.7741 9.30682L36.6832 9.05114C36.0838 8.90909 35.6435 8.68892 35.3622 8.39062C35.0838 8.08949 34.9446 7.71307 34.9446 7.26136C34.9446 6.89205 35.0483 6.56534 35.2557 6.28125C35.4659 5.99716 35.7514 5.77415 36.1122 5.61222C36.4759 5.45028 36.8878 5.36932 37.348 5.36932C37.9957 5.36932 38.5043 5.51136 38.8736 5.79545C39.2457 6.07955 39.5099 6.45455 39.6662 6.92045ZM42.2369 9.61364L42.2198 8.36932H42.4244L45.288 5.45455H46.5323L43.4812 8.53977H43.396L42.2369 9.61364ZM41.2994 12V3.27273H42.305V12H41.2994ZM45.4585 12L42.9016 8.76136L43.6175 8.0625L46.7369 12H45.4585ZM47.8267 12V5.45455H48.8324V12H47.8267ZM48.3381 4.36364C48.142 4.36364 47.973 4.29688 47.831 4.16335C47.6918 4.02983 47.6222 3.86932 47.6222 3.68182C47.6222 3.49432 47.6918 3.33381 47.831 3.20028C47.973 3.06676 48.142 3 48.3381 3C48.5341 3 48.7017 3.06676 48.8409 3.20028C48.983 3.33381 49.054 3.49432 49.054 3.68182C49.054 3.86932 48.983 4.02983 48.8409 4.16335C48.7017 4.29688 48.5341 4.36364 48.3381 4.36364ZM53.5891 5.45455V6.30682H50.0607V5.45455H53.5891ZM51.1175 12V4.55114C51.1175 4.17614 51.2056 3.86364 51.3817 3.61364C51.5579 3.36364 51.7866 3.17614 52.0678 3.05114C52.3491 2.92614 52.646 2.86364 52.9585 2.86364C53.2056 2.86364 53.4073 2.88352 53.5636 2.9233C53.7198 2.96307 53.8363 3 53.913 3.03409L53.6232 3.90341C53.5721 3.88636 53.5011 3.86506 53.4102 3.83949C53.3221 3.81392 53.2056 3.80114 53.0607 3.80114C52.7283 3.80114 52.4883 3.88494 52.3406 4.05256C52.1957 4.22017 52.1232 4.46591 52.1232 4.78977V12H51.1175ZM55.6463 14.4545C55.4759 14.4545 55.3239 14.4403 55.1903 14.4119C55.0568 14.3864 54.9645 14.3608 54.9134 14.3352L55.169 13.4489C55.4134 13.5114 55.6293 13.5341 55.8168 13.517C56.0043 13.5 56.1705 13.4162 56.3153 13.2656C56.4631 13.1179 56.598 12.8778 56.7202 12.5455L56.9077 12.0341L54.4872 5.45455H55.5781L57.3849 10.6705H57.4531L59.2599 5.45455H60.3509L57.5724 12.9545C57.4474 13.2926 57.2926 13.5724 57.108 13.794C56.9233 14.0185 56.7088 14.1847 56.4645 14.2926C56.223 14.4006 55.9503 14.4545 55.6463 14.4545Z" fill="#FBFBFB"/>
</g>
<defs>
<clipPath id="clip0_4_46">
<rect width="64" height="18" fill="white"/>
</clipPath>
<clipPath id="clip1_4_46">
<rect width="24" height="19" fill="white"/>
</clipPath>
</defs>
</svg>
