<?xml version="1.0" standalone="no"?>
<!DOCTYPE svg PUBLIC "-//W3C//DTD SVG 20010904//EN"
 "http://www.w3.org/TR/2001/REC-SVG-20010904/DTD/svg10.dtd">
<svg version="1.0" xmlns="http://www.w3.org/2000/svg"
 width="100.000000pt" height="100.000000pt" viewBox="0 0 100.000000 100.000000"
 preserveAspectRatio="xMidYMid meet">

<g transform="translate(0.000000,114.000000) scale(0.100000,-0.100000)"
fill="#000" stroke="none">
<path d="M716 975 c-34 -37 -40 -70 -19 -113 38 -76 143 -76 179 1 33 69 -12
137 -91 137 -36 0 -51 -5 -69 -25z"/>
<path d="M330 892 c-152 -60 -151 -310 4 -478 43 -46 45 -48 46 -23 0 14 -14
50 -30 81 -60 111 -46 240 32 288 47 29 122 27 181 -5 40 -21 51 -23 78 -13
l31 11 -49 49 c-89 90 -203 126 -293 90z"/>

<path fill="#1372f4" d="M670 723 c-91 -31 -173 -110 -231 -223 -18 -35 -23 -64 -25 -135 -3
-85 -2 -87 6 -32 12 76 39 135 86 186 113 126 268 132 325 13 56 -115 -28
-303 -166 -371 -22 -11 -33 -20 -24 -21 9 0 43 14 77 31 143 71 246 265 218
412 -3 19 -20 55 -36 80 -49 73 -132 95 -230 60z"/>
<path d="M727 538 c7 -29 11 -69 8 -88 -4 -28 -3 -31 5 -18 6 10 10 48 8 85
-2 53 -7 68 -19 71 -15 3 -15 -2 -2 -50z"/>
<path d="M450 337 c0 -16 81 -42 102 -34 8 4 7 6 -5 6 -10 1 -36 10 -57 21
-31 16 -40 17 -40 7z"/>
</g>

</svg>