<svg width="48" height="48" viewBox="0 0 48 48" fill="none" xmlns="http://www.w3.org/2000/svg">
<g clip-path="url(#clip0_6_21043)">
<path d="M0 16.1C0 10.4051 0 7.55764 1.12587 5.39026C2.07462 3.56382 3.56382 2.07462 5.39026 1.12587C7.55764 0 10.4051 0 16.1 0H31.9C37.5949 0 40.4424 0 42.6097 1.12587C44.4362 2.07462 45.9254 3.56382 46.8741 5.39026C48 7.55764 48 10.4051 48 16.1V31.9C48 37.5949 48 40.4424 46.8741 42.6097C45.9254 44.4362 44.4362 45.9254 42.6097 46.8741C40.4424 48 37.5949 48 31.9 48H16.1C10.4051 48 7.55764 48 5.39026 46.8741C3.56382 45.9254 2.07462 44.4362 1.12587 42.6097C0 40.4424 0 37.5949 0 31.9V16.1Z" fill="url(#paint0_linear_6_21043)"/>
<path d="M18.5 36.75C17.5281 36.75 17.6932 36.383 17.358 35.4576L14.5 26.0515L36.5 13" fill="#C8DAEA"/>
<path d="M18.5 36.7501C19.25 36.7501 19.5814 36.4071 20 36.0001L24 32.1106L19.0105 29.1018" fill="#A9C9DD"/>
<path d="M19.0098 29.1025L31.0998 38.0347C32.4794 38.796 33.4752 38.4018 33.8188 36.7539L38.7401 13.5631C39.2439 11.5431 37.97 10.6269 36.6502 11.2261L7.7527 22.3688C5.78018 23.16 5.79168 24.2605 7.39315 24.7508L14.8089 27.0654L31.9772 16.2341C32.7876 15.7427 33.5315 16.0069 32.921 16.5487" fill="url(#paint1_linear_6_21043)"/>
</g>
<defs>
<linearGradient id="paint0_linear_6_21043" x1="32.0016" y1="8.0016" x2="20.0016" y2="36" gradientUnits="userSpaceOnUse">
<stop stop-color="#37AEE2"/>
<stop offset="1" stop-color="#1E96C8"/>
</linearGradient>
<linearGradient id="paint1_linear_6_21043" x1="27.751" y1="22.9997" x2="32.4458" y2="33.6829" gradientUnits="userSpaceOnUse">
<stop stop-color="#EFF7FC"/>
<stop offset="1" stop-color="white"/>
</linearGradient>
<clipPath id="clip0_6_21043">
<rect width="48" height="48" fill="white"/>
</clipPath>
</defs>
</svg>
