<svg width="48" height="48" viewBox="0 0 48 48" fill="none" xmlns="http://www.w3.org/2000/svg">
<path d="M0 16.1C0 10.4051 0 7.55764 1.12587 5.39026C2.07462 3.56382 3.56382 2.07462 5.39026 1.12587C7.55764 0 10.4051 0 16.1 0H31.9C37.5949 0 40.4424 0 42.6097 1.12587C44.4362 2.07462 45.9254 3.56382 46.8741 5.39026C48 7.55764 48 10.4051 48 16.1V31.9C48 37.5949 48 40.4424 46.8741 42.6097C45.9254 44.4362 44.4362 45.9254 42.6097 46.8741C40.4424 48 37.5949 48 31.9 48H16.1C10.4051 48 7.55764 48 5.39026 46.8741C3.56382 45.9254 2.07462 44.4362 1.12587 42.6097C0 40.4424 0 37.5949 0 31.9V16.1Z" fill="#1EA1F2"/>
<path fill-rule="evenodd" clip-rule="evenodd" d="M37.323 18.1521C37.3346 18.452 37.3385 18.7516 37.3385 19.0514C37.3385 28.1409 30.9444 38.6342 19.252 38.6342C15.6603 38.6342 12.3205 37.4895 9.50659 35.5407C10.004 35.5953 10.5092 35.6362 11.0221 35.6362C14.0001 35.6362 16.743 34.5322 18.9187 32.6789C16.137 32.638 13.7882 30.6347 12.9782 27.9093C13.367 27.991 13.7675 28.032 14.1771 28.032C14.7546 28.032 15.3153 27.9504 15.8528 27.7868C12.942 27.16 10.7495 24.38 10.7495 21.0413C10.7495 21.0004 10.7495 20.9867 10.7495 20.9595C11.6074 21.4637 12.5893 21.777 13.6319 21.8178C11.9239 20.5777 10.8011 18.4656 10.8011 16.0808C10.8011 14.827 11.1138 13.6414 11.6642 12.6193C14.7985 16.7893 19.4846 19.5285 24.7675 19.8147C24.659 19.3104 24.6034 18.7791 24.6034 18.2476C24.6034 14.4456 27.4496 11.3657 30.9612 11.3657C32.7894 11.3657 34.4405 12.1971 35.5994 13.5326C37.0503 13.2328 38.4095 12.6605 39.6395 11.8701C39.1627 13.4781 38.1563 14.827 36.841 15.6719C38.1278 15.5083 39.3553 15.1407 40.4935 14.5956C39.6395 15.9719 38.5646 17.1846 37.323 18.1521Z" fill="white"/>
</svg>
